# Blender v2.92.0 OBJ File: 'Slime.blend'
# www.blender.org
mtllib Slime.mtl
o Cube
v 0.795233 0.104344 0.124943
v -0.785274 -0.043113 0.785274
v 0.682276 0.093931 0.561932
v -0.772606 -0.035328 -0.773658
v 0.000000 -0.018574 -0.966644
v 0.000566 0.005681 1.020689
v 0.677850 0.386932 -0.110174
v -1.020689 0.005681 -0.000566
v 0.502198 1.000000 -0.502198
v 0.582852 0.333571 -0.491519
v 0.502198 1.000000 0.502198
v 0.747081 0.095782 -0.109769
v -0.652356 0.848504 -0.652356
v -0.658131 0.501195 -0.658131
v -0.502198 1.000000 0.502198
v -0.658131 0.501195 0.658131
v 0.000000 0.592293 0.818205
v 0.497802 1.000000 0.502198
v -0.157940 0.886378 0.614817
v 0.000000 0.592293 -0.818205
v -0.157940 0.886378 -0.614817
v 0.497802 1.000000 -0.502198
v 0.628631 0.086762 -0.536076
v 0.614817 0.886378 -0.157940
v 0.502198 1.000000 0.497802
v -0.818205 0.592293 0.000000
v -0.614817 0.886378 0.157940
v -0.614817 0.886378 -0.157940
v -0.497802 1.000000 0.497802
v 0.271562 1.000000 0.271562
v 0.271562 1.000000 -0.271562
v -0.271562 1.000000 -0.271562
v 0.673812 -0.925023 -0.673812
v 0.760287 -0.622507 -0.760287
v 0.685713 -0.933900 0.677853
v 0.783655 -0.636623 0.786112
v -0.688896 -0.933800 -0.685411
v -0.779629 -0.627378 -0.782466
v -0.696909 -1.012883 0.696909
v -0.876228 -0.667122 0.876228
v -0.208795 -0.943767 -0.678740
v 0.000000 -0.681696 -0.910028
v 0.208795 -0.943767 -0.678740
v 0.006046 -0.697345 1.021505
v -0.323262 -1.009662 0.696062
v 0.323883 -1.012026 0.696684
v -1.021505 -0.697345 -0.006046
v -0.696684 -1.012026 -0.323883
v -0.696062 -1.009662 0.323262
v 0.678740 -0.943767 -0.208795
v 0.910028 -0.681696 0.000000
v 0.678740 -0.943767 0.208795
v 0.306478 -1.000000 0.306478
v -0.306478 -1.000000 0.306478
v -0.306478 -1.000000 -0.306478
v 0.306478 -1.000000 -0.306478
v 0.663790 -0.200508 -0.769028
v 0.769282 0.120094 -0.575822
v 0.779363 0.118708 0.587680
v 0.684564 -0.205081 0.802382
v 0.887732 0.129114 -0.149515
v 0.892320 0.129121 0.150691
v 0.723503 0.366903 -0.531265
v 0.525450 0.610555 -0.652984
v 0.729248 0.368150 0.535567
v 0.524489 0.608554 0.654087
v 0.818501 0.420264 0.149920
v 0.818501 0.420264 -0.149920
v 0.728613 0.715602 0.024563
v 0.632160 0.343373 0.509819
v 0.721414 0.395486 0.124172
v 0.754484 0.093945 0.114136
v 0.641526 0.083531 0.551125
v 0.591411 0.332973 0.499012
v 0.680664 0.385087 0.113365
v 0.930961 -0.115614 0.027736
v 0.931045 -0.115628 0.033052
v 0.773489 -0.167561 -0.441527
v 0.799865 -0.165408 0.442526
v 0.938550 -0.191471 -0.122985
v 0.874189 -0.289689 0.156158
v 0.821130 -0.363629 -0.420508
v 0.834496 -0.122806 0.030891
v 0.833716 -0.118389 0.027692
v 0.833799 -0.118403 0.033008
v 0.676243 -0.170336 -0.441570
v 0.702619 -0.168183 0.442482
v 0.825089 -0.366126 0.017490
v 0.709483 -0.338729 0.390265
v 0.727685 -0.344327 -0.405336
vt 0.812225 0.687225
vt 0.812775 0.687225
vt 0.812775 0.687775
vt 0.812225 0.687775
vt 0.500000 0.000000
vt 0.562775 0.000000
vt 0.562775 0.125000
vt 0.500000 0.125000
vt 0.413310 0.250000
vt 0.500000 0.250000
vt 0.500000 0.375000
vt 0.413310 0.375000
vt 0.812225 0.562225
vt 0.812775 0.562225
vt 0.812775 0.562775
vt 0.812225 0.562775
vt 0.687225 0.687225
vt 0.687775 0.687225
vt 0.687775 0.687775
vt 0.687225 0.687775
vt 0.562775 0.250000
vt 0.413310 0.875000
vt 0.500000 0.875000
vt 0.500000 1.000000
vt 0.413310 1.000000
vt 0.481915 0.765224
vt 0.573185 0.773029
vt 0.562775 0.875000
vt 0.413310 0.625000
vt 0.450972 0.625000
vt 0.454729 0.687726
vt 0.476990 0.695540
vt 0.474569 0.757214
vt 0.413310 0.750000
vt 0.475740 0.485184
vt 0.413310 0.500000
vt 0.413310 0.000000
vt 0.413310 0.125000
vt 0.546666 0.597660
vt 0.516063 0.599107
vt 0.516063 0.599107
vt 0.546666 0.597660
vt 0.687225 0.562225
vt 0.687225 0.562775
vt 0.618016 0.610497
vt 0.598254 0.509912
vt 0.562775 1.000000
vt 0.562775 0.375000
vt 0.163310 0.663310
vt 0.211690 0.663310
vt 0.211690 0.711690
vt 0.163310 0.711690
vt 0.288310 0.538310
vt 0.336690 0.538310
vt 0.336690 0.586690
vt 0.288310 0.586690
vt 0.288310 0.663310
vt 0.336690 0.663310
vt 0.336690 0.711690
vt 0.288310 0.711690
vt 0.573313 0.477146
vt 0.482685 0.484658
vt 0.546698 0.652211
vt 0.545531 0.722462
vt 0.545531 0.722462
vt 0.546698 0.652211
vt 0.163310 0.538310
vt 0.211690 0.538310
vt 0.211690 0.586690
vt 0.163310 0.586690
vt 0.750000 0.750000
vt 0.750000 0.687775
vt 0.750000 0.687775
vt 0.750000 0.500000
vt 0.750000 0.562225
vt 0.750000 0.562225
vt 0.517244 0.526117
vt 0.545434 0.527601
vt 0.875000 0.625000
vt 0.812775 0.625000
vt 0.812775 0.625000
vt 0.687775 0.562775
vt 0.875000 0.750000
vt 0.608866 0.617718
vt 0.875000 0.500000
vt 0.656432 0.738391
vt 0.599146 0.743795
vt 0.598833 0.621745
vt 0.687775 0.562225
vt 0.656395 0.511887
vt 0.250000 0.500000
vt 0.250000 0.538310
vt 0.250000 0.750000
vt 0.250000 0.711690
vt 0.250000 0.711690
vt 0.125000 0.625000
vt 0.125000 0.586690
vt 0.163310 0.625000
vt 0.125000 0.750000
vt 0.125000 0.500000
vt 0.375000 0.750000
vt 0.375000 0.500000
vt 0.475142 0.764729
vt 0.516028 0.650604
vt 0.480400 0.625452
vt 0.480403 0.624541
vt 0.517244 0.526117
vt 0.476959 0.547906
vt 0.475019 0.494466
vt 0.517142 0.724109
vt 0.545434 0.527601
vt 0.453601 0.556429
vt 0.516028 0.650604
vt 0.546698 0.652211
vt 0.516028 0.650604
vt 0.517142 0.724109
vt 0.545531 0.722462
vt 0.517142 0.724109
vt 0.476990 0.695540
vt 0.454729 0.687726
vt 0.450972 0.625000
vt 0.479759 0.625000
vt 0.480400 0.625452
vt 0.480403 0.624541
vt 0.476959 0.547906
vt 0.453601 0.556429
vn 0.0000 1.0000 -0.0000
vn -0.9131 0.2974 0.2789
vn -0.2029 -0.0361 -0.9785
vn -0.1915 0.9626 -0.1915
vn -0.9137 0.2875 -0.2871
vn -0.2226 0.0815 0.9715
vn 0.3294 0.2648 0.9063
vn 0.9734 0.0808 0.2145
vn 0.2337 -0.0377 -0.9716
vn -0.9715 0.0815 0.2226
vn -0.2576 -0.0626 -0.9642
vn 0.9341 0.2123 -0.2869
vn -0.2789 0.2974 0.9131
vn -0.2496 0.2407 -0.9380
vn 0.0165 -0.9997 -0.0165
vn 0.1010 -0.9897 -0.1010
vn 0.1789 -0.9838 -0.0075
vn -0.9535 0.0091 -0.3013
vn 0.3112 0.2030 -0.9284
vn 0.2638 -0.9621 -0.0690
vn 0.0073 -0.9838 -0.1792
vn 0.0386 0.5823 0.8120
vn 0.0386 0.5823 -0.8120
vn 0.9382 0.2223 -0.2651
vn -0.8225 0.5688 0.0000
vn -0.2321 0.4010 0.8862
vn 0.8120 0.5823 0.0386
vn -0.9512 0.2788 -0.1323
vn 0.2657 0.3644 0.8925
vn 0.9261 0.1842 0.3293
vn -0.1323 0.2788 -0.9512
vn -0.0014 0.9499 0.3127
vn 0.2657 0.3644 -0.8925
vn -0.8862 0.4010 0.2321
vn -0.0700 0.9698 -0.2335
vn 0.2335 0.9698 -0.0700
vn -0.4072 0.9094 -0.0849
vn 0.2326 0.9443 0.2326
vn 0.0000 -0.6617 -0.7498
vn -0.0033 -0.7198 0.6941
vn -0.6941 -0.7198 0.0033
vn 0.7498 -0.6617 0.0000
vn 0.0000 -1.0000 0.0000
vn -0.8005 -0.5901 0.1047
vn -0.1080 -0.4803 -0.8704
vn 0.2462 -0.4994 0.8307
vn 0.8755 -0.4625 -0.1399
vn 0.1399 -0.4625 -0.8755
vn -0.1047 -0.5901 0.8005
vn -0.0019 -0.9996 -0.0278
vn -0.8437 -0.4766 -0.2472
vn 0.8652 -0.4906 0.1038
vn 0.0000 -0.9888 -0.1494
vn 0.0278 -0.9996 0.0019
vn 0.1494 -0.9888 0.0000
vn 0.2978 0.0144 0.9545
vn 0.9865 0.1633 -0.0151
vn 0.9567 0.2912 0.0000
vn 0.9514 -0.0964 -0.2926
vn 0.9584 -0.0462 0.2818
vn 0.8307 0.4609 0.3123
vn 0.8277 0.4719 -0.3037
vn 0.6737 0.2242 -0.7042
vn 0.9711 0.2386 -0.0074
vn 0.6837 0.2635 0.6806
vn 0.9611 0.0440 -0.2728
vn 0.2955 -0.1164 0.9482
vn 0.2495 -0.9656 0.0730
vn -0.2196 0.9748 0.0404
vn -0.2419 -0.0588 0.9685
vn 0.2871 -0.1403 -0.9476
vn -0.2376 0.9706 -0.0383
vn 0.9385 0.2395 0.2489
vn 0.9526 -0.0533 0.2994
vn 0.0284 -0.9933 -0.1117
vn -0.7177 0.6853 -0.1237
vn 0.0283 -0.9945 0.1006
vn -0.5956 0.8032 0.0100
vn 0.0285 -0.9996 -0.0031
vn 0.9484 -0.0583 -0.3118
vn 0.9578 0.0814 -0.2758
vn 0.9522 0.0038 0.3055
vn 0.0930 0.1765 0.9799
vn -0.6282 0.5059 -0.5911
usemtl Material
s off
f 29/1/1 27/2/1 15/3/1 19/4/1
f 2/5/2 16/6/2 26/7/2 8/8/2
f 38/9/3 4/10/3 5/11/3 42/12/3
f 21/13/4 13/14/4 28/15/4 32/16/4
f 25/17/1 30/18/1 18/19/1 11/20/1
f 8/8/5 26/7/5 14/21/5 4/10/5
f 44/22/6 6/23/6 2/24/6 40/25/6
f 60/26/7 66/27/7 17/28/7 6/23/7
f 51/29/8 80/30/8 81/31/8 79/32/8 60/33/8 36/34/8
f 42/12/9 5/11/9 57/35/9 34/36/9
f 40/37/10 2/5/10 8/8/10 47/38/10
f 68/39/11 61/40/11 12/41/11 7/42/11
f 9/43/12 24/44/12 69/45/12 64/46/12
f 6/23/13 17/28/13 16/47/13 2/24/13
f 4/10/14 14/21/14 20/48/14 5/11/14
f 49/49/15 54/50/15 45/51/15 39/52/15
f 43/53/16 33/54/16 50/55/16 56/56/16
f 53/57/17 52/58/17 35/59/17 46/60/17
f 47/38/18 8/8/18 4/10/18 38/9/18
f 5/11/19 20/48/19 64/61/19 57/62/19
f 67/63/20 65/64/20 70/65/20 71/66/20
f 37/67/21 41/68/21 55/69/21 48/70/21
f 17/71/22 18/72/22 19/73/22
f 20/74/23 21/75/23 22/76/23
f 23/77/24 10/78/24 7/42/24 12/41/24
f 26/79/25 27/80/25 28/81/25
f 29/1/1 30/18/1 31/82/1 32/16/1
f 19/4/26 15/3/26 16/83/26 17/71/26
f 69/84/27 24/44/27 25/17/27
f 28/15/28 13/14/28 14/85/28 26/79/28
f 11/20/29 18/19/29 17/71/29 66/86/29
f 25/17/30 11/20/30 66/87/30 69/88/30
f 13/14/31 21/13/31 20/74/31 14/85/31
f 29/1/32 19/4/32 18/19/32 30/18/32
f 22/89/33 9/43/33 64/90/33 20/74/33
f 15/3/34 27/2/34 26/79/34 16/83/34
f 21/13/35 32/16/35 31/82/35 22/89/35
f 30/18/36 25/17/36 24/44/36 31/82/36
f 27/2/37 29/1/37 32/16/37 28/15/37
f 9/43/38 22/89/38 31/82/38 24/44/38
f 41/68/39 42/91/39 43/92/39
f 44/93/40 45/94/40 46/95/40
f 47/96/41 48/97/41 49/98/41
f 50/55/42 51/29/42 52/58/42
f 53/57/43 54/50/43 55/69/43 56/56/43
f 49/49/44 39/52/44 40/99/44 47/96/44
f 41/68/45 37/67/45 38/100/45 42/91/45
f 46/60/46 35/59/46 36/101/46 44/93/46
f 50/55/47 33/54/47 34/36/47 51/29/47
f 33/54/48 43/53/48 42/91/48 34/102/48
f 39/52/49 45/51/49 44/93/49 40/99/49
f 53/57/50 46/60/50 45/51/50 54/50/50
f 37/67/51 48/70/51 47/96/51 38/100/51
f 35/59/52 52/58/52 51/29/52 36/34/52
f 43/53/53 56/56/53 55/69/53 41/68/53
f 54/50/54 49/49/54 48/70/54 55/69/54
f 52/58/55 53/57/55 56/56/55 50/55/55
f 36/34/56 60/103/56 6/23/56 44/22/56
f 61/40/57 62/104/57 77/105/57 76/106/57
f 67/63/58 68/39/58 69/88/58
f 58/107/59 61/40/59 76/106/59 78/108/59 57/109/59
f 62/104/60 59/110/60 60/33/60 79/32/60 77/105/60
f 65/64/61 67/63/61 69/88/61 66/87/61
f 68/39/62 63/111/62 64/46/62 69/45/62
f 57/62/63 64/61/63 63/111/63 58/107/63
f 67/63/64 62/104/64 61/40/64 68/39/64
f 59/110/65 65/64/65 66/27/65 60/26/65
f 34/36/66 57/109/66 78/108/66 82/112/66 80/30/66 51/29/66
f 58/107/67 63/111/67 10/78/67 23/77/67
f 63/111/68 68/39/68 7/42/68 10/78/68
f 61/40/69 58/107/69 23/77/69 12/41/69
f 1/113/70 71/66/70 75/114/70 72/115/70
f 65/64/71 59/110/71 3/116/71 70/65/71
f 59/110/72 62/104/72 1/113/72 3/116/72
f 62/104/70 67/63/70 71/66/70 1/113/70
f 72/115/73 75/114/73 74/117/73 73/118/73
f 70/65/71 3/116/71 73/118/71 74/117/71
f 71/66/20 70/65/20 74/117/20 75/114/20
f 3/116/72 1/113/72 72/115/72 73/118/72
f 87/119/74 89/120/74 88/121/74 83/122/74
f 77/105/75 79/32/75 87/119/75 85/123/75
f 81/31/76 80/30/76 88/121/76 89/120/76
f 78/108/77 76/106/77 84/124/77 86/125/77
f 80/30/78 82/112/78 90/126/78 88/121/78
f 76/106/79 77/105/79 85/123/79 84/124/79
f 86/125/80 84/124/80 83/122/80
f 88/121/81 90/126/81 86/125/81 83/122/81
f 85/123/82 87/119/82 83/122/82
f 84/124/57 85/123/57 83/122/57
f 82/112/83 78/108/83 86/125/83 90/126/83
f 79/32/84 81/31/84 89/120/84 87/119/84
